<svg width="52" height="55" viewBox="0 0 52 55" fill="none" xmlns="http://www.w3.org/2000/svg">
<g clip-path="url(#clip0_1_2)">
<g opacity="0.5">
<path d="M47.1141 1.05096H4.88591C2.76573 1.05096 1.04698 2.77624 1.04698 4.90447V50.0956C1.04698 52.2238 2.76573 53.9491 4.88591 53.9491H47.1141C49.2343 53.9491 50.953 52.2238 50.953 50.0956V4.90447C50.953 2.77624 49.2343 1.05096 47.1141 1.05096Z" stroke="black" stroke-width="6"/>
<path d="M22.4672 19.0705C23.931 19.0705 25.1176 17.9383 25.1176 16.5416C25.1176 15.145 23.931 14.0128 22.4672 14.0128C21.0035 14.0128 19.8168 15.145 19.8168 16.5416C19.8168 17.9383 21.0035 19.0705 22.4672 19.0705ZM18.5193 27.0364C19.2039 26.7888 19.5518 26.0617 19.2923 25.4084C19.0328 24.7551 18.2708 24.4232 17.5861 24.6708C14.2456 25.8721 11.8658 28.9488 11.8658 32.5577C11.8658 37.215 15.8192 40.9873 20.7003 40.9873C24.0795 40.9873 27.0115 39.1803 28.4968 36.5249C28.8391 35.9084 28.5962 35.1447 27.9502 34.8126C27.3041 34.4807 26.5035 34.7178 26.1556 35.3342C25.1176 37.194 23.0635 38.4583 20.7003 38.4583C17.2825 38.4583 14.5161 35.819 14.5161 32.5577C14.5161 30.0342 16.1781 27.8793 18.5193 27.0364ZM26.2109 23.2853L26.1059 22.7742C25.8575 21.5993 24.7808 20.7564 23.5218 20.7564C21.8599 20.7564 20.612 22.2052 20.9377 23.7594L22.2132 29.8445C22.5445 31.4198 23.9912 32.5525 25.6808 32.5525H31.23C31.5999 32.5525 31.9257 32.7685 32.0582 33.1004L34.0625 38.2054C34.3938 39.0539 35.3767 39.5016 36.2768 39.2119L38.9271 38.369C39.8547 38.0737 40.3516 37.1201 40.0424 36.2352C39.7332 35.35 38.7337 34.8759 37.8061 35.1709L36.7738 35.4974L35.3656 31.915C34.7196 30.2712 33.0687 29.1807 31.23 29.1807H27.4477L26.9176 26.6518H30.4183C31.3956 26.6518 32.1852 25.8984 32.1852 24.9659C32.1852 24.0334 31.3956 23.28 30.4183 23.28H26.2109V23.2853Z" fill="black"/>
</g>
</g>
<defs>
<clipPath id="clip0_1_2">
<rect width="52" height="55" fill="white"/>
</clipPath>
</defs>
</svg>
