<svg width="149" height="157" viewBox="0 0 149 157" fill="none" xmlns="http://www.w3.org/2000/svg">
<g opacity="0.5">
<rect x="3" y="3" width="143" height="151" rx="11" stroke="black" stroke-width="6"/>
<path d="M64.3772 54.4375C68.5715 54.4375 71.9715 51.2056 71.9715 47.2188C71.9715 43.2319 68.5715 40 64.3772 40C60.183 40 56.7829 43.2319 56.7829 47.2188C56.7829 51.2056 60.183 54.4375 64.3772 54.4375ZM53.0649 77.1766C55.0267 76.4697 56.0235 74.3943 55.2799 72.5295C54.5363 70.6646 52.3529 69.7172 50.391 70.424C40.8191 73.8529 34 82.6357 34 92.9375C34 106.232 45.3282 117 59.3144 117C68.9971 117 77.3983 111.842 81.6543 104.262C82.6352 102.502 81.9391 100.322 80.088 99.3742C78.2368 98.4268 75.9427 99.1035 74.946 100.863C71.9715 106.172 66.0859 109.781 59.3144 109.781C49.5209 109.781 41.5943 102.247 41.5943 92.9375C41.5943 85.7338 46.3566 79.5828 53.0649 77.1766ZM75.1042 66.4688L74.8036 65.01C74.0916 61.6562 71.0064 59.25 67.3991 59.25C62.6369 59.25 59.0612 63.3857 59.9947 67.8223L63.6494 85.1924C64.5987 89.6891 68.744 92.9225 73.5853 92.9225H89.4859C90.5459 92.9225 91.4794 93.5391 91.8591 94.4865L97.6023 109.059C98.5516 111.481 101.368 112.759 103.947 111.932L111.541 109.526C114.199 108.683 115.623 105.961 114.737 103.435C113.851 100.908 110.987 99.5547 108.329 100.397L105.371 101.329L101.336 91.1027C99.4851 86.4105 94.7545 83.2975 89.4859 83.2975H78.6482L77.1293 76.0787H87.1601C89.9606 76.0787 92.223 73.9281 92.223 71.2662C92.223 68.6043 89.9606 66.4537 87.1601 66.4537H75.1042V66.4688Z" fill="black"/>
</g>
</svg>
