<svg width="664" height="481" viewBox="0 0 664 481" fill="none" xmlns="http://www.w3.org/2000/svg">
<g opacity="0.5">
<path d="M37.9183 67.071H0.0605469L3.88214 48.0635H68.9091L70.4616 49.6077C70.4616 57.983 49.4426 115.362 34.1564 156.466C27.2894 175.118 24.6024 184.621 24.6024 192.581C24.6024 202.441 31.4693 211.589 46.7555 211.589C55.9514 211.589 66.222 201.729 86.5243 173.573L94.1673 177.375L68.9687 211.589C56.7277 227.923 49.8609 234.398 42.2175 238.199H34.5744C19.288 238.199 6.27062 226.022 6.27062 208.559C6.27062 203.213 7.40519 195.254 9.31597 188.007L37.9183 67.071Z" fill="black" style="mix-blend-mode:overlay"/>
<path d="M37.9183 67.071H0.0605469L3.88214 48.0635H68.9091L70.4616 49.6077C70.4616 57.983 49.4426 115.362 34.1564 156.466C27.2894 175.118 24.6024 184.621 24.6024 192.581C24.6024 202.441 31.4693 211.589 46.7555 211.589C55.9514 211.589 66.222 201.729 86.5243 173.573L94.1673 177.375L68.9687 211.589C56.7277 227.923 49.8609 234.398 42.2175 238.199H34.5744C19.288 238.199 6.27062 226.022 6.27062 208.559C6.27062 203.213 7.40519 195.254 9.31597 188.007L37.9183 67.071Z" fill="black"/>
<path d="M249.656 140.072C253.478 125.994 258.434 115.362 258.434 99.74C258.434 81.5044 244.7 67.0705 224.816 67.0705C201.528 67.0705 187.734 82.2767 163.67 143.101L126.23 238.139H103.301L145.338 67.0705H86.1631L89.9848 48.0629H170.597L172.149 49.6072C172.149 57.2101 136.202 163.653 133.933 169.771H138.531L160.684 120.351C184.331 67.4266 210.305 44.2612 243.147 44.2612C272.944 44.2612 285.961 64.8134 285.961 82.2767C285.961 102.056 278.676 116.847 267.211 145.418C254.194 177.374 251.567 183.849 251.567 192.58C251.567 202.441 254.612 211.588 269.898 211.588C279.094 211.588 289.365 201.728 309.667 173.573L317.31 177.374L292.111 211.588C279.87 227.923 273.003 234.397 265.36 238.199H257.717C242.431 238.199 233.235 226.022 233.235 208.559C233.235 203.213 234.37 195.254 236.28 188.007L249.656 140.072Z" fill="black" style="mix-blend-mode:overlay"/>
<path d="M249.656 140.072C253.478 125.994 258.434 115.362 258.434 99.74C258.434 81.5044 244.7 67.0705 224.816 67.0705C201.528 67.0705 187.734 82.2767 163.67 143.101L126.23 238.139H103.301L145.338 67.0705H86.1631L89.9848 48.0629H170.597L172.149 49.6072C172.149 57.2101 136.202 163.653 133.933 169.771H138.531L160.684 120.351C184.331 67.4266 210.305 44.2612 243.147 44.2612C272.944 44.2612 285.961 64.8134 285.961 82.2767C285.961 102.056 278.676 116.847 267.211 145.418C254.194 177.374 251.567 183.849 251.567 192.58C251.567 202.441 254.612 211.588 269.898 211.588C279.094 211.588 289.365 201.728 309.667 173.573L317.31 177.374L292.111 211.588C279.87 227.923 273.003 234.397 265.36 238.199H257.717C242.431 238.199 233.235 226.022 233.235 208.559C233.235 203.213 234.37 195.254 236.28 188.007L249.656 140.072Z" fill="black"/>
<path d="M31.7073 466.532C29.4382 466.532 27.5274 467.303 25.6166 469.203L14.1519 480.25H12.5993L0 404.163L7.64318 400.359C8.77774 404.163 25.9749 468.786 89.4494 468.786C116.201 468.786 127.665 457.384 127.665 438.376C127.665 388.958 28.3037 400.359 28.3037 335.735C28.3037 301.521 58.8765 282.513 87.9564 282.513C118.529 282.513 125.396 296.175 135.368 296.175C137.637 296.175 139.548 295.402 141.459 293.502L152.923 282.454H154.476L167.075 358.484L159.432 362.286C158.298 358.484 139.19 293.858 91.7781 293.858C70.4012 293.858 55.0548 305.263 55.0548 328.072C55.0548 377.492 150.595 369.889 150.595 426.912C150.595 463.442 120.022 480.134 87.8969 480.134C52.3677 480.134 41.6197 466.47 31.7073 466.47V466.532Z" fill="black" style="mix-blend-mode:overlay"/>
<path d="M31.7073 466.532C29.4382 466.532 27.5274 467.303 25.6166 469.203L14.1519 480.25H12.5993L0 404.163L7.64318 400.359C8.77774 404.163 25.9749 468.786 89.4494 468.786C116.201 468.786 127.665 457.384 127.665 438.376C127.665 388.958 28.3037 400.359 28.3037 335.735C28.3037 301.521 58.8765 282.513 87.9564 282.513C118.529 282.513 125.396 296.175 135.368 296.175C137.637 296.175 139.548 295.402 141.459 293.502L152.923 282.454H154.476L167.075 358.484L159.432 362.286C158.298 358.484 139.19 293.858 91.7781 293.858C70.4012 293.858 55.0548 305.263 55.0548 328.072C55.0548 377.492 150.595 369.889 150.595 426.912C150.595 463.442 120.022 480.134 87.8969 480.134C52.3677 480.134 41.6197 466.47 31.7073 466.47V466.532Z" fill="black"/>
<path d="M225.118 305.32H187.261L191.082 286.312H256.049L257.602 287.857C257.602 296.232 236.583 353.611 221.297 394.715C214.43 413.365 211.743 422.872 211.743 430.828C211.743 440.689 218.609 449.837 233.896 449.837C243.092 449.837 253.362 439.976 273.665 411.824L281.308 415.623L256.109 449.837C243.868 466.171 237.001 472.648 229.358 476.448H221.715C206.428 476.448 193.411 464.271 193.411 446.808C193.411 441.463 194.545 433.503 196.456 426.254L225.118 305.32Z" fill="black" style="mix-blend-mode:overlay"/>
<path d="M225.118 305.32H187.261L191.082 286.312H256.049L257.602 287.857C257.602 296.232 236.583 353.611 221.297 394.715C214.43 413.365 211.743 422.872 211.743 430.828C211.743 440.689 218.609 449.837 233.896 449.837C243.092 449.837 253.362 439.976 273.665 411.824L281.308 415.623L256.109 449.837C243.868 466.171 237.001 472.648 229.358 476.448H221.715C206.428 476.448 193.411 464.271 193.411 446.808C193.411 441.463 194.545 433.503 196.456 426.254L225.118 305.32Z" fill="black"/>
<path d="M402.104 414.019L416.614 388.895L424.256 392.695L409.746 417.822C389.086 453.165 364.246 480.192 336.36 480.192C327.164 480.192 301.189 475.26 301.189 445.975C301.189 438.372 302.324 427.741 306.564 416.335L345.914 305.32H272.527L276.707 286.313H350.094L360.663 198.877H385.981L363.828 286.313H424.613L420.435 305.32H358.872L331.762 411.761C329.851 419.368 328.717 425.425 328.717 431.544C328.717 448.295 339.824 457.381 351.646 457.381C367.291 457.381 381.084 450.136 402.104 414.019Z" fill="black" style="mix-blend-mode:overlay"/>
<path d="M402.104 414.019L416.614 388.895L424.256 392.695L409.746 417.822C389.086 453.165 364.246 480.192 336.36 480.192C327.164 480.192 301.189 475.26 301.189 445.975C301.189 438.372 302.324 427.741 306.564 416.335L345.914 305.32H272.527L276.707 286.313H350.094L360.663 198.877H385.981L363.828 286.313H424.613L420.435 305.32H358.872L331.762 411.761C329.851 419.368 328.717 425.425 328.717 431.544C328.717 448.295 339.824 457.381 351.646 457.381C367.291 457.381 381.084 450.136 402.104 414.019Z" fill="black"/>
<path d="M656.358 412.064L664 415.867L638.802 450.08C626.561 466.414 619.694 472.888 612.052 476.691H604.406C589.122 476.691 579.924 464.515 579.924 447.048C579.924 440.991 581.06 435.646 583.749 428.043L610.499 355.041H605.9L583.749 404.461C560.041 457.325 534.065 480.491 501.163 480.491C471.37 480.491 458.351 459.941 458.351 442.474C458.351 422.695 464.44 409.035 475.191 379.335C482.475 359.555 492.027 335.201 503.077 305.561H420.375L424.554 286.554H521.349L522.902 288.098L493.879 384.681C489.7 398.758 485.879 413.193 485.879 425.011C485.879 443.249 500.031 457.683 519.497 457.683C542.785 457.683 556.578 442.474 580.644 381.651L618.083 286.613H641.012L609.663 415.151C608.11 420.853 605.842 429.585 605.842 438.733C605.842 446.335 609.663 450.139 616.53 450.139C625.725 450.139 635.997 440.278 656.3 412.122L656.358 412.064Z" fill="black" style="mix-blend-mode:overlay"/>
<path d="M656.358 412.064L664 415.867L638.802 450.08C626.561 466.414 619.694 472.888 612.052 476.691H604.406C589.122 476.691 579.924 464.515 579.924 447.048C579.924 440.991 581.06 435.646 583.749 428.043L610.499 355.041H605.9L583.749 404.461C560.041 457.325 534.065 480.491 501.163 480.491C471.37 480.491 458.351 459.941 458.351 442.474C458.351 422.695 464.44 409.035 475.191 379.335C482.475 359.555 492.027 335.201 503.077 305.561H420.375L424.554 286.554H521.349L522.902 288.098L493.879 384.681C489.7 398.758 485.879 413.193 485.879 425.011C485.879 443.249 500.031 457.683 519.497 457.683C542.785 457.683 556.578 442.474 580.644 381.651L618.083 286.613H641.012L609.663 415.151C608.11 420.853 605.842 429.585 605.842 438.733C605.842 446.335 609.663 450.139 616.53 450.139C625.725 450.139 635.997 440.278 656.3 412.122L656.358 412.064Z" fill="black"/>
<path d="M463.235 83.1892H472.364V78.6891C474.613 82.5936 478.912 84.0495 482.616 84.0495C491.083 84.0495 498.094 76.77 498.094 65.3876C498.094 54.2037 491.215 46.7919 482.616 46.7919C478.118 46.7919 474.282 48.8434 472.364 52.1522V35.2109H463.235V83.1892ZM488.503 65.4538C488.503 72.4023 485.064 77.0347 480.367 77.0347C475.34 77.0347 472.033 72.667 472.033 65.3876C472.033 58.2405 475.34 53.8066 480.367 53.8066C485.064 53.8066 488.503 58.5052 488.503 65.4538ZM511.258 67.9023H537.518C537.915 55.3287 531.035 46.7919 520.055 46.7919C509.538 46.7919 502.196 54.6669 502.196 65.2552C502.196 75.5127 508.876 84.0495 520.32 84.0495C529.977 84.0495 535.203 78.1597 537.121 72.8656H527.728C525.876 75.9759 523.032 76.9686 520.254 76.9686C515.954 76.9686 511.721 73.9906 511.258 67.9023ZM511.39 61.6155C512.118 55.6596 516.549 53.4758 519.989 53.4758C523.825 53.4758 528.059 55.5934 528.257 61.6155H511.39ZM544.658 37.9242V47.586H539.631V53.8728H544.658V73.5935C544.658 80.6745 546.245 83.1892 554.381 83.1892H561.062V76.6377H558.284C555.043 76.6377 553.786 75.9097 553.786 72.27V53.8728H561.194V47.586H553.786V37.9242H544.658ZM578.42 84.0495C583.777 84.0495 587.548 82.4612 590.061 78.7553C590.194 80.4759 590.392 82.0642 590.657 83.1892H599.057C598.396 80.2112 597.999 77.0347 597.999 71.4097C597.999 68.167 598.131 63.4685 598.131 62.3435C598.131 50.2993 591.252 46.6595 582.785 46.6595C573.657 46.6595 567.836 51.8213 567.175 58.8361H575.708C575.906 54.9316 578.816 53.0787 582.322 53.0787C586.026 53.0787 589.003 54.9978 589.003 60.4905V61.0861C575.046 62.6743 565.587 65.1891 565.587 73.5935C565.587 80.0789 571.606 84.0495 578.42 84.0495ZM589.268 66.9097V69.5567C589.268 74.7185 586.82 77.8288 581.132 77.8288C577.031 77.8288 574.98 75.7112 574.98 73.1303C574.98 69.1597 579.081 67.9685 589.268 66.9097Z" fill="black" style="mix-blend-mode:overlay"/>
<path d="M463.235 83.1892H472.364V78.6891C474.613 82.5936 478.912 84.0495 482.616 84.0495C491.083 84.0495 498.094 76.77 498.094 65.3876C498.094 54.2037 491.215 46.7919 482.616 46.7919C478.118 46.7919 474.282 48.8434 472.364 52.1522V35.2109H463.235V83.1892ZM488.503 65.4538C488.503 72.4023 485.064 77.0347 480.367 77.0347C475.34 77.0347 472.033 72.667 472.033 65.3876C472.033 58.2405 475.34 53.8066 480.367 53.8066C485.064 53.8066 488.503 58.5052 488.503 65.4538ZM511.258 67.9023H537.518C537.915 55.3287 531.035 46.7919 520.055 46.7919C509.538 46.7919 502.196 54.6669 502.196 65.2552C502.196 75.5127 508.876 84.0495 520.32 84.0495C529.977 84.0495 535.203 78.1597 537.121 72.8656H527.728C525.876 75.9759 523.032 76.9686 520.254 76.9686C515.954 76.9686 511.721 73.9906 511.258 67.9023ZM511.39 61.6155C512.118 55.6596 516.549 53.4758 519.989 53.4758C523.825 53.4758 528.059 55.5934 528.257 61.6155H511.39ZM544.658 37.9242V47.586H539.631V53.8728H544.658V73.5935C544.658 80.6745 546.245 83.1892 554.381 83.1892H561.062V76.6377H558.284C555.043 76.6377 553.786 75.9097 553.786 72.27V53.8728H561.194V47.586H553.786V37.9242H544.658ZM578.42 84.0495C583.777 84.0495 587.548 82.4612 590.061 78.7553C590.194 80.4759 590.392 82.0642 590.657 83.1892H599.057C598.396 80.2112 597.999 77.0347 597.999 71.4097C597.999 68.167 598.131 63.4685 598.131 62.3435C598.131 50.2993 591.252 46.6595 582.785 46.6595C573.657 46.6595 567.836 51.8213 567.175 58.8361H575.708C575.906 54.9316 578.816 53.0787 582.322 53.0787C586.026 53.0787 589.003 54.9978 589.003 60.4905V61.0861C575.046 62.6743 565.587 65.1891 565.587 73.5935C565.587 80.0789 571.606 84.0495 578.42 84.0495ZM589.268 66.9097V69.5567C589.268 74.7185 586.82 77.8288 581.132 77.8288C577.031 77.8288 574.98 75.7112 574.98 73.1303C574.98 69.1597 579.081 67.9685 589.268 66.9097Z" fill="black"/>
<path d="M473.051 1.44141C439.577 1.44141 412.441 28.5348 412.441 61.9563C412.441 95.3775 439.577 122.471 473.051 122.471H520.19V149.366L550.975 122.471H585.29C618.764 122.471 645.899 95.3775 645.899 61.9563C645.899 28.5348 618.764 1.44141 585.29 1.44141H473.051Z" stroke="black" stroke-width="2" style="mix-blend-mode:overlay"/>
<path d="M473.051 1.44141C439.577 1.44141 412.441 28.5348 412.441 61.9563C412.441 95.3775 439.577 122.471 473.051 122.471H520.19V149.366L550.975 122.471H585.29C618.764 122.471 645.899 95.3775 645.899 61.9563C645.899 28.5348 618.764 1.44141 585.29 1.44141H473.051Z" stroke="black" stroke-width="2"/>
</g>
</svg>
